<svg width="45" height="45" viewBox="0 0 45 45" fill="none" xmlns="http://www.w3.org/2000/svg">
<g clip-path="url(#clip0_25_98)">
<path d="M22.5431 13.4586L33.4362 21.9564C33.7972 22.2381 34 22.6201 34 23.0185C34 23.4168 33.7972 23.7988 33.4362 24.0805L22.5431 32.5783C22.1799 32.852 21.6935 33.0034 21.1886 32.9999C20.6837 32.9965 20.2007 32.8385 19.8437 32.56C19.4867 32.2815 19.2842 31.9047 19.2798 31.5109C19.2754 31.117 19.4695 30.7376 19.8203 30.4542L27.4264 24.5206H1.92561C1.4149 24.5206 0.925118 24.3624 0.563997 24.0807C0.202876 23.7989 0 23.4169 0 23.0185C0 22.6201 0.202876 22.238 0.563997 21.9563C0.925118 21.6745 1.4149 21.5163 1.92561 21.5163H27.4264L19.8203 15.5827C19.6363 15.4441 19.4896 15.2783 19.3887 15.0951C19.2878 14.9118 19.2347 14.7147 19.2325 14.5152C19.2302 14.3158 19.279 14.118 19.3758 13.9334C19.4726 13.7487 19.6156 13.581 19.7964 13.44C19.9772 13.2989 20.1922 13.1874 20.4288 13.1119C20.6655 13.0363 20.919 12.9983 21.1747 13.0001C21.4304 13.0018 21.6831 13.0432 21.918 13.122C22.153 13.2007 22.3654 13.3151 22.5431 13.4586Z" fill="white"/>
</g>
<defs>
<clipPath id="clip0_25_98">
<rect width="45" height="45" fill="white"/>
</clipPath>
</defs>
</svg>
