<svg width="92" height="92" viewBox="0 0 92 92" fill="none" xmlns="http://www.w3.org/2000/svg">
<path fill-rule="evenodd" clip-rule="evenodd" d="M14.375 11.5C13.6125 11.5 12.8812 11.8029 12.3421 12.3421C11.8029 12.8812 11.5 13.6125 11.5 14.375V77.625C11.5 78.3875 11.8029 79.1188 12.3421 79.6579C12.8812 80.1971 13.6125 80.5 14.375 80.5H77.625C78.3875 80.5 79.1188 80.1971 79.6579 79.6579C80.1971 79.1188 80.5 78.3875 80.5 77.625V14.375C80.5 13.6125 80.1971 12.8812 79.6579 12.3421C79.1188 11.8029 78.3875 11.5 77.625 11.5H14.375ZM42.2855 59.5355L68.1605 33.6605L64.0953 29.5895L40.25 53.4347L27.9105 41.0895L23.8395 45.1605L38.2145 59.5355C38.4816 59.8032 38.7988 60.0157 39.1481 60.1606C39.4974 60.3055 39.8718 60.3801 40.25 60.3801C40.6282 60.3801 41.0026 60.3055 41.3519 60.1606C41.7012 60.0157 42.0184 59.8032 42.2855 59.5355Z" fill="#94626F"/>
</svg>
