<svg width="39" height="39" viewBox="0 0 39 39" fill="none" xmlns="http://www.w3.org/2000/svg">
<path d="M24.6912 2.1419C27.3314 2.1419 29.776 2.97714 31.7744 4.40315L13.167 23.0085C12.9724 23.1965 12.8172 23.4213 12.7105 23.6698C12.6037 23.9183 12.5475 24.1857 12.5452 24.4561C12.5428 24.7266 12.5944 24.9949 12.6968 25.2453C12.7992 25.4956 12.9505 25.7231 13.1418 25.9143C13.333 26.1056 13.5605 26.2569 13.8109 26.3593C14.0612 26.4617 14.3295 26.5133 14.6 26.5109C14.8704 26.5086 15.1378 26.4524 15.3863 26.3456C15.6348 26.2389 15.8596 26.0837 16.0476 25.8891L34.655 7.28166C36.1253 9.35086 36.9149 11.8265 36.9142 14.3649V34.7365C36.9142 35.8171 36.4849 36.8534 35.7209 37.6175C34.9568 38.3815 33.9205 38.8108 32.8399 38.8108H4.31962C3.23905 38.8108 2.20273 38.3815 1.43864 37.6175C0.674558 36.8534 0.2453 35.8171 0.2453 34.7365V6.21622C0.2453 5.13564 0.674558 4.09932 1.43864 3.33524C2.20273 2.57116 3.23905 2.1419 4.31962 2.1419H24.6912ZM38.2526 0.803484C38.6345 1.18551 38.8491 1.70358 38.8491 2.24376C38.8491 2.78394 38.6345 3.30201 38.2526 3.68403L34.653 7.28166C33.8607 6.1671 32.887 5.1934 31.7724 4.40111L35.37 0.803484C35.7521 0.421576 36.2701 0.207031 36.8103 0.207031C37.3505 0.207031 37.8706 0.421576 38.2526 0.803484Z" fill="#94626F"/>
</svg>
