<svg width="93" height="40" viewBox="0 0 93 40" fill="none" xmlns="http://www.w3.org/2000/svg">
<path d="M6.696 23.54C6.48 23.54 6.312 23.36 6.192 23V22.316C6.192 19.34 5.808 17.852 5.04 17.852C4.536 17.852 3.768 18.668 2.736 20.3C2.448 20.732 2.16 21.164 1.872 21.596C1.608 22.028 1.344 22.46 1.08 22.892C0.936 22.94 0.828 22.964 0.756 22.964C0.516 22.964 0.396 22.784 0.396 22.424V22.316L0.828 20.876C1.332 19.364 1.704 18.164 1.944 17.276C2.184 16.364 2.304 15.764 2.304 15.476C2.304 15.38 2.292 15.32 2.268 15.296C2.748 14.864 3.204 14.648 3.636 14.648C3.852 14.648 3.936 14.708 3.888 14.828L3.24 18.464C3.48 18.128 3.972 17.708 4.716 17.204C5.1 16.94 5.424 16.748 5.688 16.628C5.976 16.508 6.204 16.448 6.372 16.448C7.116 16.448 7.536 17.948 7.632 20.948C7.896 20.468 8.244 19.868 8.676 19.148C9.132 18.428 9.66 17.6 10.26 16.664C10.596 16.208 10.956 15.98 11.34 15.98C11.7 15.98 11.916 16.208 11.988 16.664C12.06 17.6 12.132 18.476 12.204 19.292C12.276 20.084 12.432 20.72 12.672 21.2C12.912 21.68 13.32 21.932 13.896 21.956C14.616 21.956 15.324 21.692 16.02 21.164C16.74 20.612 17.388 19.952 17.964 19.184C18.084 18.992 18.204 18.896 18.324 18.896C18.396 18.896 18.432 18.992 18.432 19.184C18.432 19.232 18.384 19.34 18.288 19.508C18.192 19.652 18.12 19.748 18.072 19.796C17.664 20.396 17.184 20.984 16.632 21.56C16.104 22.112 15.54 22.568 14.94 22.928C14.34 23.264 13.74 23.432 13.14 23.432C12.252 23.432 11.604 22.952 11.196 21.992C10.788 21.032 10.536 19.676 10.44 17.924C9.936 18.38 9.396 19.196 8.82 20.372C8.46 21.044 8.16 21.608 7.92 22.064C7.68 22.496 7.5 22.808 7.38 23C7.14 23.36 6.912 23.54 6.696 23.54ZM18.3209 23.216C17.3369 23.216 16.8449 22.736 16.8449 21.776C16.8449 20.864 17.5049 19.592 18.8249 17.96C20.0249 16.448 21.0689 15.404 21.9569 14.828C22.8449 14.252 23.6729 13.964 24.4409 13.964C25.3529 13.964 25.8089 14.228 25.8089 14.756C25.8089 14.876 25.6889 15.056 25.4489 15.296C25.2089 15.512 25.0769 15.644 25.0529 15.692C24.5969 16.436 24.3689 17.948 24.3689 20.228C24.3689 21.548 24.6569 22.208 25.2329 22.208C25.7609 22.208 26.3729 21.896 27.0689 21.272C27.7649 20.648 28.4129 19.952 29.0129 19.184C29.0849 19.112 29.1449 19.076 29.1929 19.076C29.2889 19.076 29.3369 19.136 29.3369 19.256C29.3369 19.304 29.3129 19.388 29.2649 19.508C29.2409 19.628 29.2049 19.724 29.1569 19.796C28.1729 21.116 27.3209 22.004 26.6009 22.46C25.9049 22.916 25.2209 23.144 24.5489 23.144C23.4689 23.144 22.9409 21.992 22.9649 19.688C22.5089 20.504 21.8489 21.272 20.9849 21.992C19.9769 22.808 19.0889 23.216 18.3209 23.216ZM19.2929 22.244C19.7009 22.244 20.1329 22.076 20.5889 21.74C22.0049 20.612 22.9289 18.5 23.3609 15.404C23.2889 15.404 23.2409 15.392 23.2169 15.368C22.7369 15.368 22.1009 15.656 21.3089 16.232C20.6369 16.688 20.0969 17.18 19.6889 17.708C18.7289 18.956 18.2489 20.036 18.2489 20.948C18.2489 21.812 18.5969 22.244 19.2929 22.244ZM34.7591 23.18C33.8951 23.18 33.4631 22.64 33.4631 21.56C33.4631 20.984 33.6791 20.264 34.1111 19.4C34.5191 18.44 34.7231 17.744 34.7231 17.312C34.7231 17 34.6031 16.76 34.3631 16.592C34.1471 16.424 33.8711 16.268 33.5351 16.124C33.2951 16.004 33.0431 15.86 32.7791 15.692C32.5151 15.524 32.2991 15.356 32.1311 15.188C31.9631 15.548 31.5911 16.172 31.0151 17.06C30.4391 17.948 29.8151 18.86 29.1431 19.796C29.0471 19.916 28.9511 19.976 28.8551 19.976C28.7591 19.976 28.7111 19.892 28.7111 19.724C28.7111 19.556 28.8071 19.376 28.9991 19.184C29.1911 18.944 29.4671 18.56 29.8271 18.032C30.1871 17.48 30.5471 16.892 30.9071 16.268C31.2671 15.62 31.5431 15.056 31.7351 14.576C31.6151 14.168 31.5191 13.82 31.4471 13.532C31.3751 13.244 31.3391 12.956 31.3391 12.668C31.3391 12.164 31.4831 11.708 31.7711 11.3C32.0591 10.892 32.4311 10.688 32.8871 10.688C33.5351 10.688 33.8591 11.072 33.8591 11.84C33.8591 12.68 33.5351 13.556 32.8871 14.468C32.9831 14.612 33.1031 14.732 33.2471 14.828C33.3911 14.924 33.6191 15.032 33.9311 15.152C34.0991 15.224 34.2551 15.272 34.3991 15.296C34.5671 15.32 34.7111 15.332 34.8311 15.332C35.0231 15.332 35.1791 15.32 35.2991 15.296C35.4431 15.272 35.5631 15.26 35.6591 15.26C35.8031 15.26 35.9711 15.344 36.1631 15.512C36.3791 15.656 36.4871 15.884 36.4871 16.196C36.4871 16.364 36.4751 16.472 36.4511 16.52C36.4271 16.568 36.3551 16.772 36.2351 17.132C36.1391 17.468 35.9591 17.948 35.6951 18.572C35.2151 19.82 34.9751 20.696 34.9751 21.2C34.9751 21.872 35.2031 22.208 35.6591 22.208C36.1631 22.208 36.7631 21.908 37.4591 21.308C38.1791 20.708 38.8391 20 39.4391 19.184C39.5111 19.112 39.5711 19.076 39.6191 19.076C39.7151 19.076 39.7631 19.16 39.7631 19.328C39.7631 19.496 39.7031 19.652 39.5831 19.796C38.6231 21.068 37.7591 21.956 36.9911 22.46C36.2231 22.94 35.4791 23.18 34.7591 23.18ZM42.7174 12.056C42.4294 12.056 42.1654 11.924 41.9254 11.66C41.6854 11.396 41.5654 11.12 41.5654 10.832C41.5654 10.16 41.9374 9.824 42.6814 9.824C43.4014 9.824 43.7614 10.172 43.7614 10.868C43.7614 11.66 43.4134 12.056 42.7174 12.056ZM42.2494 23.288C41.4334 23.288 40.7494 23.012 40.1974 22.46C39.6694 21.884 39.4054 21.056 39.4054 19.976C39.4054 18.656 39.7654 17.312 40.4854 15.944C40.7494 15.44 41.2054 15.188 41.8534 15.188C42.2374 15.188 42.4294 15.308 42.4294 15.548C42.4294 15.62 42.3934 15.728 42.3214 15.872C41.4814 17.48 41.0614 18.86 41.0614 20.012C41.0614 20.852 41.2054 21.464 41.4934 21.848C41.8054 22.232 42.2254 22.424 42.7534 22.424C43.5934 22.424 44.4334 22.112 45.2734 21.488C46.1134 20.84 46.9294 20.06 47.7214 19.148C47.7934 19.028 47.9014 18.968 48.0454 18.968C48.1414 18.968 48.1894 19.016 48.1894 19.112C48.1894 19.184 48.1414 19.292 48.0454 19.436C47.9734 19.556 47.9014 19.676 47.8294 19.796C47.5174 20.204 47.1454 20.624 46.7134 21.056C46.2814 21.488 45.7774 21.896 45.2014 22.28C44.7454 22.592 44.2534 22.832 43.7254 23C43.2214 23.192 42.7294 23.288 42.2494 23.288ZM39.7822 39.128C36.3502 39.128 34.6342 37.664 34.6342 34.736C34.6342 29.936 41.0422 25.916 53.8583 22.676C53.9063 22.196 53.9543 21.584 54.0023 20.84C54.0503 20.096 54.1223 19.22 54.2183 18.212L51.8783 20.84C51.3743 21.392 50.8703 21.8 50.3663 22.064C49.8863 22.304 49.4183 22.424 48.9623 22.424C48.0263 22.424 47.5583 21.752 47.5583 20.408C47.5583 19.016 48.3623 17.684 49.9703 16.412C50.6183 15.884 51.3023 15.44 52.0223 15.08C52.7663 14.696 53.5463 14.384 54.3623 14.144C54.3623 13.784 54.6503 13.604 55.2263 13.604C55.5863 13.604 55.8023 13.7 55.8743 13.892C57.6743 13.892 58.5743 14.408 58.5743 15.44C58.5743 15.704 58.4543 16.016 58.2143 16.376C57.9983 16.712 57.7823 16.88 57.5663 16.88C57.4943 16.88 57.4583 16.844 57.4583 16.772C57.4583 16.724 57.5063 16.58 57.6023 16.34C57.6983 16.076 57.7463 15.86 57.7463 15.692C57.7463 15.092 57.3263 14.792 56.4863 14.792C56.4143 14.792 56.3303 14.792 56.2343 14.792C56.1623 14.792 56.0783 14.804 55.9823 14.828C55.9823 14.996 55.9583 15.332 55.9102 15.836C55.8863 16.316 55.8503 16.952 55.8023 17.744C55.7063 19.136 55.5623 20.696 55.3703 22.424C56.6423 22.208 57.5783 22.1 58.1783 22.1C59.2823 22.1 59.8343 22.256 59.8343 22.568C59.8343 22.712 59.7263 22.784 59.5103 22.784C59.4143 22.784 59.2343 22.76 58.9703 22.712C58.7303 22.664 58.5263 22.64 58.3583 22.64C57.3503 22.64 56.3063 22.784 55.2263 23.072C54.3623 29.936 51.2903 34.784 46.0102 37.616C44.1862 38.624 42.1102 39.128 39.7822 39.128ZM49.7903 21.164C50.3903 21.164 51.0983 20.768 51.9143 19.976C52.2503 19.664 52.5503 19.34 52.8143 19.004C53.1023 18.668 53.3543 18.332 53.5703 17.996C54.0983 17.228 54.3623 16.244 54.3623 15.044C52.4423 15.548 51.0503 16.328 50.1863 17.384C49.3703 18.416 48.9623 19.376 48.9623 20.264C48.9623 20.864 49.2383 21.164 49.7903 21.164ZM40.5022 38.3C42.4702 38.3 44.2462 37.928 45.8302 37.184C50.2703 35.168 52.9103 30.548 53.7503 23.324C41.6542 26.516 35.6062 30.2 35.6062 34.376C35.6062 36.992 37.2382 38.3 40.5022 38.3ZM60.3461 23.648C59.4581 23.648 59.0141 23 59.0141 21.704C59.0141 21.368 59.0501 20.996 59.1221 20.588C59.1941 20.18 59.2901 19.748 59.4101 19.292C59.6501 18.452 60.0101 17.504 60.4901 16.448C61.2101 14.96 61.8101 14.216 62.2901 14.216C62.7461 14.216 63.1181 14.468 63.4061 14.972C63.5981 14.9 63.7541 14.864 63.8741 14.864C64.5461 14.864 64.8821 15.368 64.8821 16.376C64.8821 16.808 64.7981 17.312 64.6301 17.888C64.4621 18.464 64.1741 19.184 63.7661 20.048C64.3661 20.6 64.9541 20.876 65.5301 20.876C65.9861 20.876 66.4181 20.768 66.8261 20.552C67.2341 20.312 67.6901 19.856 68.1941 19.184C68.2421 19.136 68.3141 19.112 68.4101 19.112C68.4821 19.112 68.5181 19.184 68.5181 19.328C68.5181 19.472 68.4581 19.628 68.3381 19.796C68.0261 20.204 67.6301 20.576 67.1501 20.912C66.6941 21.224 66.1181 21.38 65.4221 21.38C64.7261 21.38 64.1021 21.14 63.5501 20.66C62.6381 22.652 61.5701 23.648 60.3461 23.648ZM63.3341 19.58C63.5261 19.148 63.6701 18.704 63.7661 18.248C63.8621 17.792 63.9101 17.3 63.9101 16.772C63.9101 15.956 63.6701 15.548 63.1901 15.548C62.7341 15.548 62.5061 15.992 62.5061 16.88C62.5061 17.264 62.5901 17.732 62.7581 18.284C62.9501 18.836 63.1421 19.268 63.3341 19.58ZM60.9941 22.64C61.3301 22.64 61.7501 22.316 62.2541 21.668C62.4701 21.404 62.6501 21.14 62.7941 20.876C62.9381 20.588 63.0341 20.396 63.0821 20.3C62.7221 19.892 62.4101 19.46 62.1461 19.004C61.8821 18.548 61.7261 18.08 61.6781 17.6C61.3901 17.84 61.0901 18.464 60.7781 19.472C60.4661 20.48 60.3101 21.212 60.3101 21.668C60.3101 22.316 60.5381 22.64 60.9941 22.64ZM71.8343 23.432C69.4103 23.432 68.1983 21.644 68.1983 18.068C68.1983 14.564 69.3503 10.76 71.6543 6.656C73.9103 2.576 76.0463 0.536 78.0623 0.536C78.7823 0.536 79.2623 1.028 79.5023 2.012V2.48C79.5023 4.208 78.1703 7.124 75.5063 11.228C74.3783 13.004 73.3103 14.552 72.3023 15.872C71.3183 17.192 70.3943 18.308 69.5303 19.22C69.8183 21.38 70.8143 22.46 72.5183 22.46C73.5503 22.46 74.4263 22.172 75.1463 21.596C75.8663 20.996 76.6343 20.192 77.4503 19.184C77.5943 19.04 77.6903 18.968 77.7383 18.968C77.8103 18.968 77.8463 19.028 77.8463 19.148C77.8463 19.316 77.7623 19.532 77.5943 19.796C76.5623 21.116 75.5903 22.052 74.6783 22.604C73.7663 23.156 72.8183 23.432 71.8343 23.432ZM69.5663 18.32C70.8623 17.048 72.5543 14.528 74.6423 10.76C76.8503 6.752 77.9543 3.992 77.9543 2.48C77.9543 1.808 77.7623 1.472 77.3783 1.472C75.8903 1.472 74.1983 3.608 72.3023 7.88C71.4143 9.992 70.7303 11.912 70.2503 13.64C69.7943 15.368 69.5663 16.928 69.5663 18.32ZM78.2724 23.18C77.2164 23.18 76.6884 22.592 76.6884 21.416C76.6884 20 77.6604 18.536 79.6044 17.024C81.4044 15.608 83.0724 14.9 84.6084 14.9C84.6804 14.9 84.7644 14.912 84.8604 14.936C84.9804 14.96 85.0764 14.972 85.1484 14.972C85.1964 14.972 85.3284 14.648 85.5444 14L88.4244 5.936C88.5924 5.48 88.7964 4.928 89.0364 4.28C89.2764 3.632 89.5764 2.888 89.9364 2.048C90.1524 1.64 90.3084 1.436 90.4044 1.436C90.9564 1.436 91.2324 1.676 91.2324 2.156C91.2324 2.492 91.1244 3.02 90.9084 3.74C90.7164 4.46 90.4044 5.36 89.9724 6.44L88.2444 10.796C87.8364 11.852 87.4764 12.86 87.1644 13.82C86.8764 14.756 86.6244 15.632 86.4084 16.448C86.1684 17.312 86.0484 18.356 86.0484 19.58C86.0484 21.5 86.5044 22.46 87.4164 22.46C87.9684 22.46 88.5924 22.232 89.2884 21.776C90.0084 21.32 90.8604 20.456 91.8444 19.184C91.8924 19.136 91.9644 19.052 92.0604 18.932C92.1804 18.812 92.2524 18.752 92.2764 18.752C92.3484 18.752 92.3844 18.8 92.3844 18.896C92.3844 19.04 92.3484 19.196 92.2764 19.364C92.2044 19.508 92.1084 19.652 91.9884 19.796C91.1004 21.044 90.2364 21.92 89.3964 22.424C88.5564 22.904 87.7644 23.144 87.0204 23.144C85.3164 23.144 84.4404 21.5 84.3924 18.212C84.2244 18.596 83.9004 19.04 83.4204 19.544C82.9644 20.024 82.3764 20.576 81.6564 21.2C80.1204 22.52 78.9924 23.18 78.2724 23.18ZM79.1724 21.92C79.8684 21.92 80.7444 21.392 81.8004 20.336C82.2084 19.928 82.5684 19.532 82.8804 19.148C83.2164 18.74 83.5404 18.32 83.8524 17.888C84.0924 17.48 84.3084 17.096 84.5004 16.736C84.6924 16.352 84.8484 15.98 84.9684 15.62C84.8724 15.596 84.7644 15.584 84.6444 15.584C84.5244 15.56 84.3804 15.548 84.2124 15.548C82.0284 15.548 80.2644 16.76 78.9204 19.184C78.5124 19.856 78.3084 20.468 78.3084 21.02C78.3084 21.62 78.5964 21.92 79.1724 21.92Z" fill="black"/>
</svg>
