<svg width="33" height="33" viewBox="0 0 33 33" fill="none" xmlns="http://www.w3.org/2000/svg">
<path fill-rule="evenodd" clip-rule="evenodd" d="M1.71875 0.375C1.36237 0.375 1.02058 0.516574 0.768576 0.768576C0.516574 1.02058 0.375 1.36237 0.375 1.71875V31.2812C0.375 31.6376 0.516574 31.9794 0.768576 32.2314C1.02058 32.4834 1.36237 32.625 1.71875 32.625H31.2812C31.6376 32.625 31.9794 32.4834 32.2314 32.2314C32.4834 31.9794 32.625 31.6376 32.625 31.2812V1.71875C32.625 1.36237 32.4834 1.02058 32.2314 0.768576C31.9794 0.516574 31.6376 0.375 31.2812 0.375H1.71875ZM14.7639 22.8264L26.8576 10.7326L24.9576 8.82987L13.8125 19.9749L8.04513 14.2049L6.14237 16.1076L12.8611 22.8264C12.9859 22.9515 13.1342 23.0508 13.2975 23.1185C13.4607 23.1863 13.6358 23.2212 13.8125 23.2212C13.9892 23.2212 14.1643 23.1863 14.3275 23.1185C14.4908 23.0508 14.6391 22.9515 14.7639 22.8264Z" fill="#DADADA"/>
</svg>
